<?xml version="1.0" encoding="UTF-8"?>
<svg version="1.1" xmlns="http://www.w3.org/2000/svg" width="500" height="500">
<path d="M0 0 C46.54292956 -1.2536816 88.28240115 17.09865887 122.79296875 47.15625 C123.56640625 47.8059375 124.33984375 48.455625 125.13671875 49.125 C129.84784601 53.11133845 133.87102284 57.39711949 137.79296875 62.15625 C138.43492187 62.92171143 138.43492187 62.92171143 139.08984375 63.70263672 C172.03989254 103.09107073 187.25839169 149.59932807 183.04296875 200.84375 C179.25626396 241.86930982 161.58412434 282.27552022 131.79296875 311.15625 C131.25414062 311.71828125 130.7153125 312.2803125 130.16015625 312.859375 C100.49397346 343.61280009 55.79055144 363.42451797 13.08984375 364.359375 C-8.18898852 364.5804867 -27.97477529 363.05312319 -48.20703125 356.15625 C-49.07505371 355.86588867 -49.94307617 355.57552734 -50.83740234 355.27636719 C-76.14253536 346.73937539 -97.189736 333.84800653 -117.20703125 316.15625 C-118.45585888 315.1547863 -119.70564511 314.15451486 -120.95703125 313.15625 C-125.67806533 309.0700738 -129.38888235 304.06488862 -133.20703125 299.15625 C-133.67834473 298.55989746 -134.1496582 297.96354492 -134.63525391 297.34912109 C-142.18072636 287.77643334 -148.656421 278.01048784 -154.20703125 267.15625 C-154.55749512 266.47449707 -154.90795898 265.79274414 -155.26904297 265.09033203 C-176.47228854 223.31925396 -180.58457721 173.23457069 -166.37109375 128.52685547 C-159.46029509 107.98175437 -149.29800677 89.38247006 -136.20703125 72.15625 C-135.51738281 71.22296875 -134.82773438 70.2896875 -134.1171875 69.328125 C-105.23857152 32.04325843 -62.6265862 8.02200786 -16.20703125 1.15625 C-10.79972192 0.47532957 -5.43725132 0.26490871 0 0 Z " fill="#DCE2D9" transform="translate(246.20703125,73.84375)"/>
<path d="M0 0 C46.54292956 -1.2536816 88.28240115 17.09865887 122.79296875 47.15625 C123.56640625 47.8059375 124.33984375 48.455625 125.13671875 49.125 C129.84784601 53.11133845 133.87102284 57.39711949 137.79296875 62.15625 C138.43492187 62.92171143 138.43492187 62.92171143 139.08984375 63.70263672 C172.03989254 103.09107073 187.25839169 149.59932807 183.04296875 200.84375 C179.69013481 237.16870712 165.68906535 270.34901711 143.04296875 298.84375 C142.21019409 299.90613892 142.21019409 299.90613892 141.3605957 300.98999023 C140.56141724 301.9752771 140.56141724 301.9752771 139.74609375 302.98046875 C139.27333008 303.56916748 138.80056641 304.15786621 138.31347656 304.7644043 C136.52329593 306.40310368 135.1601274 306.76310302 132.79296875 307.15625 C132.33857422 305.81433594 132.33857422 305.81433594 131.875 304.4453125 C126.47960799 288.87338111 121.04563306 277.00392689 105.79296875 269.15625 C105.18227539 268.84204102 104.57158203 268.52783203 103.94238281 268.20410156 C101.94366602 267.18852141 99.93429856 266.19885611 97.91796875 265.21875 C97.27537109 264.89962646 96.63277344 264.58050293 95.97070312 264.25170898 C93.42534037 263.05564276 91.37824897 262.13194771 88.53515625 262.25 C86.35009015 263.38662631 85.2992787 264.64417697 83.79296875 266.59375 C72.35204422 280.19654774 55.92821174 290.06859383 39.79296875 297.15625 C39.13296875 297.15625 38.47296875 297.15625 37.79296875 297.15625 C37.91166255 303.00964816 38.03593929 308.86289192 38.1652832 314.71606445 C38.20846746 316.7052899 38.25015345 318.69454848 38.2902832 320.68383789 C38.34838773 323.55104537 38.4119643 326.4180886 38.4765625 329.28515625 C38.50163124 330.60901085 38.50163124 330.60901085 38.52720642 331.95960999 C38.6175816 335.76734601 38.81902319 339.31503312 39.43774414 343.08569336 C39.79296875 346.15625 39.79296875 346.15625 37.79296875 349.15625 C35.91796875 349.51953125 35.91796875 349.51953125 33.79296875 349.46875 C33.09171875 349.46488281 32.39046875 349.46101563 31.66796875 349.45703125 C29.79296875 349.15625 29.79296875 349.15625 27.79296875 347.15625 C27.45963542 341.82291667 27.45963542 341.82291667 28.79296875 339.15625 C29.45296875 339.15625 30.11296875 339.15625 30.79296875 339.15625 C30.79074814 338.43406281 30.78852753 337.71187561 30.78623962 336.96780396 C30.76622183 330.1695723 30.75098699 323.37134503 30.74115658 316.57309151 C30.73593282 313.07784902 30.72884434 309.58263084 30.7175293 306.08740234 C30.70460901 302.07128666 30.69973635 298.0551966 30.6953125 294.0390625 C30.69015121 292.78070587 30.68498993 291.52234924 30.67967224 290.2258606 C30.67959671 289.06480804 30.67952118 287.90375549 30.67944336 286.70751953 C30.67722275 285.68159698 30.67500214 284.65567444 30.67271423 283.59866333 C30.79296875 281.15625 30.79296875 281.15625 31.79296875 279.15625 C33.5078125 278.296875 33.5078125 278.296875 35.73046875 277.40625 C43.60930218 274.03495836 50.64884125 269.31709457 57.71484375 264.51171875 C59.79296875 263.15625 59.79296875 263.15625 63.23046875 261.34375 C67.61425266 258.94604659 71.05562275 255.40304099 74.65625 251.984375 C76.79296875 250.15625 76.79296875 250.15625 78.79296875 250.15625 C78.79296875 249.49625 78.79296875 248.83625 78.79296875 248.15625 C81.26796875 247.16625 81.26796875 247.16625 83.79296875 246.15625 C83.79296875 245.49625 83.79296875 244.83625 83.79296875 244.15625 C85.80114622 242.33633917 87.91483214 240.68519795 90.04296875 239.0078125 C92.25089783 237.09636162 92.25089783 237.09636162 91.79296875 233.15625 C93.11296875 232.49625 94.43296875 231.83625 95.79296875 231.15625 C95.79296875 232.14625 95.79296875 233.13625 95.79296875 234.15625 C112.39022924 214.78480764 115.50716853 186.88970403 113.79296875 162.15625 C112.80331002 152.44171612 111.32733568 142.7972626 109.79296875 133.15625 C109.66519043 132.32013184 109.53741211 131.48401367 109.40576172 130.62255859 C106.28911222 110.43011768 99.7983078 84.42243025 87.10546875 67.96875 C85.79296875 66.15625 85.79296875 66.15625 85.79296875 63.15625 C85.13296875 63.15625 84.47296875 63.15625 83.79296875 63.15625 C82.4609375 61.6171875 82.4609375 61.6171875 80.98046875 59.53125 C79.04719092 56.85221143 77.08473516 54.27519196 74.91796875 51.78125 C72.79296875 49.15625 72.79296875 49.15625 72.79296875 47.15625 C72.26960937 46.92421875 71.74625 46.6921875 71.20703125 46.453125 C67.98478353 44.7220793 65.11100148 42.56404927 62.16796875 40.40625 C53.34598299 34.0523673 44.96610747 28.95377002 34.67578125 25.234375 C31.79296875 24.15625 31.79296875 24.15625 29.78125 23.0859375 C13.70055814 15.56687136 -9.57503253 19.65260724 -25.5078125 24.9609375 C-33.73387944 27.96600665 -41.03291995 32.17721836 -48.20703125 37.15625 C-49.08230469 37.75308594 -49.95757812 38.34992188 -50.859375 38.96484375 C-60.51671401 46.04236636 -68.94027192 54.97452642 -75.20703125 65.15625 C-75.54943848 65.70845215 -75.8918457 66.2606543 -76.24462891 66.82958984 C-82.92765055 77.7399838 -87.83861325 89.15054666 -92.20703125 101.15625 C-92.4596875 101.84154785 -92.71234375 102.5268457 -92.97265625 103.23291016 C-97.30509398 115.20427802 -99.33161839 127.59887718 -101.20703125 140.15625 C-101.3872583 141.29255859 -101.56748535 142.42886719 -101.75317383 143.59960938 C-103.08266939 152.54747606 -103.54951132 161.2729223 -103.52270508 170.30761719 C-103.51954262 172.52328724 -103.54313864 174.73761799 -103.56835938 176.953125 C-103.65896806 197.14101783 -99.99551714 220.08471915 -85.265625 235.140625 C-83.29488583 236.88382286 -81.26931492 238.52295282 -79.20703125 240.15625 C-77.80539148 241.37879135 -76.40948833 242.60794229 -75.01953125 243.84375 C-72.79014762 245.80490404 -70.56196976 247.6534849 -68.20703125 249.46875 C-67.54703125 250.025625 -66.88703125 250.5825 -66.20703125 251.15625 C-66.20703125 251.81625 -66.20703125 252.47625 -66.20703125 253.15625 C-65.52640625 253.3625 -64.84578125 253.56875 -64.14453125 253.78125 C-60.8048016 255.34452771 -58.54326712 257.32928061 -55.85546875 259.81640625 C-54.1339193 261.37671555 -54.1339193 261.37671555 -51.20703125 262.15625 C-51.20703125 262.81625 -51.20703125 263.47625 -51.20703125 264.15625 C-50.12228516 264.54490234 -50.12228516 264.54490234 -49.015625 264.94140625 C-46.09630027 266.20414615 -43.8287892 267.71372639 -41.26953125 269.59375 C-37.69540835 272.1573322 -34.20829487 274.30200589 -30.20703125 276.15625 C-29.21703125 276.81625 -28.22703125 277.47625 -27.20703125 278.15625 C-25.21105905 278.83488055 -23.21134574 279.50266919 -21.20703125 280.15625 C-19.47829651 281.88498474 -20.04638656 284.22083569 -20.01757812 286.578125 C-19.99250183 288.31497559 -19.99250183 288.31497559 -19.96691895 290.08691406 C-19.94655579 291.97748535 -19.94655579 291.97748535 -19.92578125 293.90625 C-19.89766085 295.86692461 -19.86953516 297.82759916 -19.84108734 299.78826904 C-19.78238077 303.94520205 -19.73248568 308.10225026 -19.68096924 312.25927734 C-19.63825966 315.67843296 -19.59367538 319.0975385 -19.54406738 322.51660156 C-19.50721365 325.08620185 -19.47482171 327.65587044 -19.44714355 330.22558594 C-19.42206726 331.96243652 -19.42206726 331.96243652 -19.39648438 333.734375 C-19.3839563 334.75950195 -19.37142822 335.78462891 -19.35852051 336.84082031 C-19.46510251 339.11798999 -19.46510251 339.11798999 -18.20703125 340.15625 C-18.01953125 343.59375 -18.01953125 343.59375 -18.20703125 347.15625 C-20.20703125 349.15625 -20.20703125 349.15625 -23.70703125 349.40625 C-27.20703125 349.15625 -27.20703125 349.15625 -29.20703125 347.15625 C-29.39453125 343.59375 -29.39453125 343.59375 -29.20703125 340.15625 C-28.87703125 339.82625 -28.54703125 339.49625 -28.20703125 339.15625 C-28.04667565 336.12817956 -27.94742677 333.12039546 -27.890625 330.08984375 C-27.85945335 328.72690941 -27.85945335 328.72690941 -27.82765198 327.33644104 C-27.76205453 324.42229054 -27.70322445 321.50804696 -27.64453125 318.59375 C-27.60135571 316.62303709 -27.55774174 314.65233374 -27.51367188 312.68164062 C-27.40636282 307.83994012 -27.3051245 302.99814563 -27.20703125 298.15625 C-28.12436035 297.86218262 -29.04168945 297.56811523 -29.98681641 297.26513672 C-48.76373647 290.79927084 -64.84263322 276.34448078 -78.20703125 262.15625 C-92.03886254 265.2806166 -106.57157044 272.70968036 -114.45703125 284.78125 C-117.22801454 289.6849142 -118.80277968 294.75035714 -120.25 300.17578125 C-121.21440794 303.17922311 -122.48200905 305.52741335 -124.20703125 308.15625 C-128.87954387 304.81626876 -132.04550467 300.82624135 -135.45703125 296.28125 C-136.0298584 295.52021973 -136.60268555 294.75918945 -137.19287109 293.97509766 C-167.38928904 253.47886366 -179.68528561 204.7293906 -172.60498047 154.65087891 C-167.7627415 124.29627904 -154.72217509 96.52005251 -136.20703125 72.15625 C-135.51738281 71.22296875 -134.82773438 70.2896875 -134.1171875 69.328125 C-105.23857152 32.04325843 -62.6265862 8.02200786 -16.20703125 1.15625 C-10.79972192 0.47532957 -5.43725132 0.26490871 0 0 Z " fill="#95BABB" transform="translate(246.20703125,73.84375)"/>
<path d="M0 0 C20.69385914 -0.8603065 39.02239886 10.45355664 54.1015625 23.66796875 C68.96344756 37.47498815 77.77611961 53.44753689 83.6015625 72.79296875 C83.80426758 73.46505371 84.00697266 74.13713867 84.21582031 74.82958984 C87.09923369 84.83488984 88.22233779 94.38722414 88.1015625 104.79296875 C88.1005957 106.38141602 88.1005957 106.38141602 88.09960938 108.00195312 C88.00643339 124.80468897 84.29392954 138.09895296 76.9140625 153.23046875 C76.47449219 154.21789062 76.03492188 155.2053125 75.58203125 156.22265625 C68.67582095 171.22923425 57.00318839 184.56322717 42.9140625 193.23046875 C40.4140625 193.48046875 40.4140625 193.48046875 37.9140625 192.23046875 C36.2076995 190.24888591 34.71162982 188.20840462 33.24609375 186.04296875 C32.02867534 184.09782064 32.02867534 184.09782064 29.9140625 183.23046875 C29.65753906 183.82859375 29.40101563 184.42671875 29.13671875 185.04296875 C26.12032494 190.43971168 19.26191634 194.2269407 13.65625 196.53515625 C2.0147242 199.48699613 -9.2882434 197.18549077 -19.5234375 191.23046875 C-21.92607005 189.35524335 -24.08917878 187.53442112 -26.0859375 185.23046875 C-26.0859375 184.57046875 -26.0859375 183.91046875 -26.0859375 183.23046875 C-26.7459375 183.23046875 -27.4059375 183.23046875 -28.0859375 183.23046875 C-28.3128125 183.95234375 -28.5396875 184.67421875 -28.7734375 185.41796875 C-30.38609237 188.87365775 -32.09609978 190.86641102 -35.0859375 193.23046875 C-40.23599634 193.64804109 -44.3084654 189.29603265 -48.0859375 186.23046875 C-48.93671875 185.60011719 -48.93671875 185.60011719 -49.8046875 184.95703125 C-60.20570085 176.86190294 -66.97274255 164.66072164 -73.0859375 153.23046875 C-73.49585938 152.5034375 -73.90578125 151.77640625 -74.328125 151.02734375 C-86.80545519 128.00715317 -86.68795655 98.10877844 -79.83203125 73.453125 C-75.38385587 58.81563342 -68.75705966 45.12910465 -59.0859375 33.23046875 C-58.44527344 32.41449219 -57.80460937 31.59851563 -57.14453125 30.7578125 C-44.86028912 16.0493556 -26.34674194 4.07570348 -7.3984375 0.54296875 C-4.93478 0.32386878 -2.46673104 0.18422422 0 0 Z " fill="#1F454C" transform="translate(249.0859375,138.76953125)"/>
<path d="M0 0 C1.7634375 0.5878125 1.7634375 0.5878125 3.5625 1.1875 C18.65001589 6.75959393 34.88175521 18.81614607 44 32 C44.56203125 32.71285156 45.1240625 33.42570312 45.703125 34.16015625 C47 36 47 36 47 38 C47.66 38 48.32 38 49 38 C65.37038707 66.1143604 72.87227484 95.9913676 77 128 C77.10602539 128.81645996 77.21205078 129.63291992 77.32128906 130.47412109 C80.09641416 153.37636314 78.86338844 183.49857614 65 203 C62.76572426 205.76602404 60.44258447 208.41663256 58 211 C58 210.01 58 209.02 58 208 C57.01 208 56.02 208 55 208 C55.33 209.65 55.66 211.3 56 213 C54.8803014 214.00593243 53.7540588 215.0045849 52.625 216 C51.68527344 216.8353125 51.68527344 216.8353125 50.7265625 217.6875 C49 219 49 219 47 219 C47 219.66 47 220.32 47 221 C44.525 221.99 44.525 221.99 42 223 C42 223.66 42 224.32 42 225 C40.32464541 226.51984883 38.58294378 227.96706453 36.8125 229.375 C35.84957031 230.14585937 34.88664063 230.91671875 33.89453125 231.7109375 C32.93933594 232.46632813 31.98414063 233.22171875 31 234 C30.16339844 234.69609375 29.32679688 235.3921875 28.46484375 236.109375 C25.98222273 238.01363581 23.52564123 239.43848393 20.75 240.875 C17.13111603 242.7985947 13.69144694 244.80600002 10.3125 247.125 C0.23519737 254 0.23519737 254 -5 254 C-5.33 257.63 -5.66 261.26 -6 265 C-12.94395046 268.07836721 -19.51747162 270.62820313 -27 272 C-26.64942157 266.67120781 -23.69264069 263.93308762 -20.1875 260.25 C-19.38602539 259.36634766 -19.38602539 259.36634766 -18.56835938 258.46484375 C-15.7824679 255.48363147 -14.12472889 253.74399471 -10 253 C-9.938125 252.21625 -9.87625 251.4325 -9.8125 250.625 C-9 248 -9 248 -6.625 246.6875 C-4 246 -4 246 -1 246 C1.08597181 245.13816716 1.08597181 245.13816716 3.1875 244 C3.90292969 243.62875 4.61835938 243.2575 5.35546875 242.875 C6.16951172 242.441875 6.16951172 242.441875 7 242 C5.68 242.33 4.36 242.66 3 243 C3 242.34 3 241.68 3 241 C4.3303125 240.566875 4.3303125 240.566875 5.6875 240.125 C6.780625 239.75375 7.87375 239.3825 9 239 C10.3921875 238.566875 10.3921875 238.566875 11.8125 238.125 C12.534375 237.75375 13.25625 237.3825 14 237 C14.165 236.34 14.33 235.68 14.5 235 C14.665 234.34 14.83 233.68 15 233 C16.65214088 232.29810775 18.32173414 231.63690339 20 231 C26.56116647 227.30292788 31.70024838 222.65969646 36.75 217.125 C37.38292969 216.45597656 38.01585937 215.78695312 38.66796875 215.09765625 C42.74199577 210.70177262 45.98211829 206.16645202 49 201 C49.38027344 200.40646729 49.76054687 199.81293457 50.15234375 199.20141602 C51.91994682 196.36090618 52.98166678 194.12833254 53.45703125 190.80078125 C54.15729162 185.89895866 55.6068057 181.37765616 57.09570312 176.66796875 C60.07504156 166.95156772 61.36975808 157.53291459 61.3125 147.375 C61.30758545 146.32884521 61.3026709 145.28269043 61.29760742 144.20483398 C61.16314482 135.20825144 60.16545641 126.72520486 58 118 C57.74259033 116.95537598 57.74259033 116.95537598 57.47998047 115.88964844 C52.08616464 94.69036155 41.98308303 69.65538868 23 57 C23 56.34 23 55.68 23 55 C22.071875 54.5359375 22.071875 54.5359375 21.125 54.0625 C19.75 53.375 18.375 52.6875 17 52 C17 51.34 17 50.68 17 50 C16.46890625 49.91363281 15.9378125 49.82726562 15.390625 49.73828125 C12.13852166 48.73395522 9.61588819 47.01772955 6.75 45.1875 C-9.12759983 35.27552311 -25.81172056 29.92618154 -44.609375 33.73046875 C-47.81995792 34.67136925 -50.89054834 35.76749714 -54 37 C-55.01578125 37.37382812 -56.0315625 37.74765625 -57.078125 38.1328125 C-81.01975898 47.40252207 -102.3330579 67.55088269 -112.87475586 90.98876953 C-119.59140453 106.90263669 -123.84424128 123.73812576 -124.87841797 140.97949219 C-124.98378884 142.7305952 -125.13071977 144.47910316 -125.28515625 146.2265625 C-126.00594775 160.23579214 -121.94935057 175.55630372 -116.87597656 188.52294922 C-116 191 -116 191 -115.47265625 193.65136719 C-114.85343371 196.72828911 -113.47225868 198.76165966 -111.75 201.375 C-111.11835938 202.3340625 -110.48671875 203.293125 -109.8359375 204.28125 C-109.23007813 205.1784375 -108.62421875 206.075625 -108 207 C-107.53851563 207.6909375 -107.07703125 208.381875 -106.6015625 209.09375 C-104.03987173 212.8139124 -101.26946135 215.91736502 -98 219 C-97.01 218.34 -96.02 217.68 -95 217 C-92.5625 216.5625 -92.5625 216.5625 -90 217 C-88.65215301 218.65495137 -87.32099506 220.32353718 -86 222 C-84.39456198 223.40182149 -82.7470978 224.75687181 -81.0625 226.0625 C-79.81146484 227.03896484 -79.81146484 227.03896484 -78.53515625 228.03515625 C-77.69855469 228.68355469 -76.86195313 229.33195313 -76 230 C-75.15953125 230.69480469 -74.3190625 231.38960937 -73.453125 232.10546875 C-71.24224719 233.81291419 -69.20077918 235.05725734 -66.6875 236.25 C-65.99011719 236.58515625 -65.29273438 236.9203125 -64.57421875 237.265625 C-63.79498047 237.62914062 -63.79498047 237.62914062 -63 238 C-63 239.32 -63 240.64 -63 242 C-62.65022176 244.70835053 -62.65022176 244.70835053 -61 247 C-58.32959214 248.06271333 -55.8567888 248.49315037 -53 249 C-53 249.66 -53 250.32 -53 251 C-51.38500163 252.48540336 -51.38500163 252.48540336 -49.3125 253.9375 C-48.21808594 254.73994141 -48.21808594 254.73994141 -47.1015625 255.55859375 C-44.93665644 257.10061184 -44.93665644 257.10061184 -42.1875 258.5 C-37.43396627 261.75956599 -36.3798966 267.69270537 -35 273 C-41.23440168 271.41039668 -47.16287645 269.72399099 -53 267 C-53 266.34 -53 265.68 -53 265 C-54.32 265 -55.64 265 -57 265 C-56.96777344 264.39671875 -56.93554688 263.7934375 -56.90234375 263.171875 C-56.94037966 260.55162319 -57.14358002 258.48275286 -58 256 C-59.99565738 254.4961634 -61.91278991 253.83992245 -64.26953125 253.015625 C-72.44179774 249.97586922 -81.22789307 244.52371348 -88 239 C-88 238.34 -88 237.68 -88 237 C-88.54140625 236.91621094 -89.0828125 236.83242188 -89.640625 236.74609375 C-92.81747823 235.74149281 -95.06603503 234.02577067 -97.75 232.0625 C-99.22726563 230.99708984 -99.22726563 230.99708984 -100.734375 229.91015625 C-101.48203125 229.27980469 -102.2296875 228.64945313 -103 228 C-103 227.34 -103 226.68 -103 226 C-103.58265625 225.731875 -104.1653125 225.46375 -104.765625 225.1875 C-107.02786601 223.98519009 -108.80576318 222.66174087 -110.75 221 C-111.36359375 220.484375 -111.9771875 219.96875 -112.609375 219.4375 C-114 218 -114 218 -114 216 C-114.88751953 215.58041016 -114.88751953 215.58041016 -115.79296875 215.15234375 C-127.52003879 209.02936028 -133.22530859 196.07399192 -137.33912659 184.11479187 C-141.01257383 172.35977764 -141.50869208 160.08639081 -141.375 147.875 C-141.37067963 147.1185318 -141.36635925 146.3620636 -141.36190796 145.58267212 C-141.27520623 132.55090609 -140.42497265 119.82751388 -138 107 C-137.82839355 106.08508789 -137.65678711 105.17017578 -137.47998047 104.22753906 C-130.90750272 70.38427113 -116.84919218 34.16093966 -88.20703125 12.9296875 C-85.51575446 11.19763924 -82.77226678 9.5983169 -80 8 C-79.17113281 7.42894531 -78.34226563 6.85789062 -77.48828125 6.26953125 C-56.46721333 -7.6319925 -22.84754935 -12.2026684 0 0 Z " fill="#E7EBE6" transform="translate(283,99)"/>
<path d="M0 0 C1.32 0 2.64 0 4 0 C4.31710938 0.71542969 4.63421875 1.43085938 4.9609375 2.16796875 C16.09151445 25.9357477 35.64772845 41.04468766 59 52 C60.485 52.495 60.485 52.495 62 53 C62.76179744 80.00148695 54.59753767 105.22611206 36 125 C26.33653629 134.31834001 14.45144478 140.30010517 0.9699707 140.31469727 C-14.09131928 140.01070133 -25.86466698 130.36832918 -36 120 C-52.09859088 101.16493978 -57.72733863 77.32543629 -57 53 C-56.48203857 52.73896484 -55.96407715 52.47792969 -55.43041992 52.20898438 C-45.43335562 47.14111291 -35.69532709 42.15919961 -27 35 C-26.15308594 34.30390625 -25.30617187 33.6078125 -24.43359375 32.890625 C-13.47400521 23.45366631 -6.34531418 12.81165614 0 0 Z " fill="#FCBFA8" transform="translate(249,158)"/>
<path d="M0 0 C1.66782828 1.33188001 3.33473481 2.6649167 5 4 C5.99 4.33 6.98 4.66 8 5 C8 5.66 8 6.32 8 7 C8.61875 7.309375 9.2375 7.61875 9.875 7.9375 C11.25 8.625 12.625 9.3125 14 10 C14 10.66 14 11.32 14 12 C14.58523438 12.26296875 15.17046875 12.5259375 15.7734375 12.796875 C33.88968826 22.58600699 42.7902622 48.49905737 48.38623047 66.89453125 C55.73074555 92.089081 54.83759238 117.941879 45.83203125 142.5546875 C44.99209239 145.02324021 44.4975884 147.44401171 44 150 C39.96584608 159.63714548 33.01903365 167.30819419 26 174.875 C25.32364502 175.61274658 24.64729004 176.35049316 23.95043945 177.1105957 C18.79023115 182.57497153 13.76369084 187.05894657 6 188 C6.33 188.99 6.66 189.98 7 191 C2.73688282 195.12989477 -0.28758534 195.61271765 -6 196 C-5.01 196 -4.02 196 -3 196 C-2.34 196.33 -1.68 196.66 -1 197 C-4.41767233 200.41767233 -9.26980893 202.12403869 -14 203 C-14.66 203 -15.32 203 -16 203 C-16 203.66 -16 204.32 -16 205 C-17.60151638 206.93867772 -19.08839649 208.0488586 -21.296875 209.26953125 C-28.47319985 213.8636236 -34.27877491 221.38840323 -38 229 C-39.65 229 -41.3 229 -43 229 C-43 228.34 -43 227.68 -43 227 C-43.66 227 -44.32 227 -45 227 C-45.28875 226.0925 -45.5775 225.185 -45.875 224.25 C-46.88080213 221.11648882 -46.88080213 221.11648882 -48.125 218.75 C-49 217 -49 217 -49 215 C-49.5878125 214.89429688 -50.175625 214.78859375 -50.78125 214.6796875 C-53.30873796 213.90542182 -54.55909442 212.89828191 -56.5 211.125 C-57.10328125 210.58746094 -57.7065625 210.04992187 -58.328125 209.49609375 C-58.87984375 209.00238281 -59.4315625 208.50867188 -60 208 C-62.50590357 205.98135546 -63.91987278 205.02670907 -67 204 C-71.72 201.64 -71.72 201.64 -72.875 199 C-73 197 -73 197 -72 194 C-76.455 191.525 -76.455 191.525 -81 189 C-79.68 188.01 -78.36 187.02 -77 186 C-74.28406649 183.52370768 -72.45167587 181.38724369 -71 178 C-70.34 178 -69.68 178 -69 178 C-68.14751993 179.0306989 -67.34300413 180.10127912 -66.5625 181.1875 C-61.26646648 187.6342766 -52.71573655 190.52300596 -44.6015625 191.34375 C-34.16119195 191.75398067 -26.67999092 190.1497452 -18 184 C-16.17684955 182.08145559 -14.61043953 180.10940687 -13 178 C-9.51127585 179.16290805 -8.90023136 180.13967609 -6.8125 183.0625 C-6.28269531 183.79597656 -5.75289062 184.52945313 -5.20703125 185.28515625 C-4.80871094 185.85105469 -4.41039062 186.41695312 -4 187 C1.34642281 186.59921868 4.41052454 184.58342209 8.3125 181.125 C8.87718994 180.63394775 9.44187988 180.14289551 10.02368164 179.63696289 C18.29483821 172.26589241 24.73406402 163.72285945 30 154 C30.50273437 153.07574219 31.00546875 152.15148437 31.5234375 151.19921875 C35.43273691 143.70804855 38.32511821 136.00526218 41 128 C41.53367187 126.61941406 41.53367187 126.61941406 42.078125 125.2109375 C49.6446164 98.85646321 42.80195841 66.80283043 30.01098633 43.15429688 C21.96516713 28.99396596 11.49047923 18.07052165 -2 9 C-2.80179688 8.4534375 -3.60359375 7.906875 -4.4296875 7.34375 C-11.18687066 3.00142902 -18.39606415 0.48659514 -26 -2 C-26.99 -2.37125 -27.98 -2.7425 -29 -3.125 C-37.59024529 -5.63048821 -47.47418702 -4.34593911 -56 -2 C-56.94359375 -1.74347656 -57.8871875 -1.48695313 -58.859375 -1.22265625 C-70.85653157 2.39824722 -80.5348768 8.94291166 -90 17 C-90.74894531 17.59167969 -91.49789062 18.18335938 -92.26953125 18.79296875 C-112.96328911 35.79011838 -122.57657587 64.46553652 -125.64453125 90.13671875 C-127.202326 107.06703747 -125.69537079 125.56101158 -118 141 C-117.42732989 142.22867525 -116.85582445 143.45789367 -116.28515625 144.6875 C-112.43144138 152.82745967 -108.0628116 160.22705635 -102.78515625 167.5234375 C-101 170 -101 170 -100 172 C-100.969375 172.12375 -101.93875 172.2475 -102.9375 172.375 C-103.948125 172.58125 -104.95875 172.7875 -106 173 C-106.33 173.66 -106.66 174.32 -107 175 C-108.5 173.625 -108.5 173.625 -110 172 C-110 171.34 -110 170.68 -110 170 C-110.99 169.67 -111.98 169.34 -113 169 C-114.31860352 167.49707031 -114.31860352 167.49707031 -115.62890625 165.578125 C-116.10650391 164.88203125 -116.58410156 164.1859375 -117.07617188 163.46875 C-117.56666016 162.7365625 -118.05714844 162.004375 -118.5625 161.25 C-119.05685547 160.53328125 -119.55121094 159.8165625 -120.06054688 159.078125 C-126.60504201 149.44292783 -128.99235837 138.47935412 -131.625 127.25 C-131.8415625 126.34378906 -132.058125 125.43757812 -132.28125 124.50390625 C-139.06695289 95.81127365 -132.98543962 62.29627611 -118.1640625 36.84765625 C-113.75619493 29.93967406 -108.66452911 23.90134053 -103 18 C-102.22914063 17.16597656 -101.45828125 16.33195312 -100.6640625 15.47265625 C-87.68087519 1.83820873 -71.88965537 -6.66075684 -54 -12 C-53.04480469 -12.30357422 -53.04480469 -12.30357422 -52.0703125 -12.61328125 C-33.36988581 -16.10637982 -15.70422447 -9.72810949 0 0 Z " fill="#E2E6DF" transform="translate(292,144)"/>
<path d="M0 0 C0.99 0.66 1.98 1.32 3 2 C3.2578125 4.4609375 3.2578125 4.4609375 3.125 7.375 C2.98567111 10.8210678 2.98050635 13.69056676 4 17 C4.99 17 5.98 17 7 17 C8.3440093 18.99284138 9.67541292 20.99419671 11 23 C14.65231224 26.73724974 16.38284246 28.0503163 21.5625 28.4375 C23.8984375 28.83984375 23.8984375 28.83984375 26 30 C27.72349929 33.36036766 28.75135854 36.7128618 29.8359375 40.328125 C33.10925809 50.65336443 40.64365622 60.55428949 48.9375 67.4375 C52 70 52 70 53 73 C53.28856588 77.16171709 53.27789889 81.32941324 53.3125 85.5 C53.34150391 86.634375 53.37050781 87.76875 53.40039062 88.9375 C53.46750049 97.94054589 52.21039095 105.88411417 46.5625 113.125 C43.80181811 115.14501114 42.38020391 115.75242154 39 116 C36.7890625 114.77734375 36.7890625 114.77734375 34.625 112.9375 C33.84253906 112.27878906 33.06007812 111.62007813 32.25390625 110.94140625 C31.51011719 110.30074219 30.76632813 109.66007812 30 109 C29.41089844 108.55527344 28.82179687 108.11054688 28.21484375 107.65234375 C17.83010634 99.62442618 11.08548157 87.37843532 5 76 C4.59007812 75.27296875 4.18015625 74.5459375 3.7578125 73.796875 C-8.47463967 51.22847487 -7.01074183 25.37734575 -3 1 C-2.01 0.67 -1.02 0.34 0 0 Z " fill="#1E454C" transform="translate(171,216)"/>
<path d="M0 0 C0.92941406 0.55429687 1.85882813 1.10859375 2.81640625 1.6796875 C4.06486499 2.41186631 5.31357652 3.14361421 6.5625 3.875 C7.17158203 4.23980469 7.78066406 4.60460937 8.40820312 4.98046875 C17.2266081 10.11287376 25.90614651 11.01855232 36 10 C41.30083079 8.44620518 46.01424193 6.22178486 50.7109375 3.33203125 C53 2 53 2 55 2 C55.029729 3.01984985 55.029729 3.01984985 55.06005859 4.06030273 C55.15621282 7.18637741 55.26552066 10.31186473 55.375 13.4375 C55.4059375 14.50677734 55.436875 15.57605469 55.46875 16.67773438 C55.70219828 23.03919994 56.40510577 28.83437231 58 35 C57.34 35 56.68 35 56 35 C55.74347656 35.598125 55.48695313 36.19625 55.22265625 36.8125 C52.20626244 42.20924293 45.34785384 45.99647195 39.7421875 48.3046875 C28.08343362 51.26089575 16.96201388 48.86778549 6.625 43.125 C3.40661811 40.51964323 1.26535052 38.50099627 -1 35 C-0.73882841 32.65749174 -0.39595698 30.32352612 0 28 C0.07653199 25.73152593 0.10811588 23.46114684 0.09765625 21.19140625 C0.09443359 19.95068359 0.09121094 18.70996094 0.08789062 17.43164062 C0.07951172 16.15482422 0.07113281 14.87800781 0.0625 13.5625 C0.05798828 12.25861328 0.05347656 10.95472656 0.04882812 9.61132812 C0.03709251 6.40750448 0.02067363 3.20377637 0 0 Z " fill="#DB7D6C" transform="translate(223,287)"/>
<path d="M0 0 C8.58357239 0.24419836 15.45525732 0.84912987 23 5 C24.01835937 5.49628906 25.03671875 5.99257812 26.0859375 6.50390625 C33.80520865 10.38153546 39.9470612 14.85115196 46 21 C47.00546875 22.00740234 47.00546875 22.00740234 48.03125 23.03515625 C54.65849625 30.09766656 58.1779473 38.05242696 58.0625 47.75 C58.05347656 48.73484375 58.04445313 49.7196875 58.03515625 50.734375 C58.02355469 51.48203125 58.01195312 52.2296875 58 53 C53.03136737 52.39359208 49.09483653 50.20751631 44.75 47.875 C43.99001709 47.46830078 43.23003418 47.06160156 42.44702148 46.64257812 C36.8329252 43.57782883 31.79871035 40.24713445 27 36 C26.18273437 35.30132812 25.36546875 34.60265625 24.5234375 33.8828125 C14.77991061 25.37562437 1.78116174 13.54686394 0 0 Z " fill="#6D9094" transform="translate(253,158)"/>
<path d="M0 0 C-6.71787262 21.72112147 -25.80005736 37.58955589 -45.140625 48.08984375 C-48.98098287 50.07838819 -52.92633753 51.55611297 -57 53 C-57.46579929 44.62855168 -57.24455703 38.31240518 -53 31 C-52.66097656 30.34773438 -52.32195312 29.69546875 -51.97265625 29.0234375 C-46.49746468 19.24213442 -37.86271297 12.05085624 -28 7 C-27.29488281 6.62230469 -26.58976562 6.24460938 -25.86328125 5.85546875 C-18.04201792 1.99543675 -8.73560603 -0.32840624 0 0 Z " fill="#698E91" transform="translate(249,158)"/>
<path d="M0 0 C4.82297422 2.60440608 8.97166683 5.26642292 13 9 C13 9.66 13 10.32 13 11 C13.680625 11.20625 14.36125 11.4125 15.0625 11.625 C18.40222965 13.18827771 20.66376413 15.17303061 23.3515625 17.66015625 C25.07311195 19.22046555 25.07311195 19.22046555 28 20 C28 20.66 28 21.32 28 22 C28.72316406 22.25910156 29.44632813 22.51820313 30.19140625 22.78515625 C33.11073098 24.04789615 35.37824205 25.55747639 37.9375 27.4375 C41.5116229 30.0010822 44.99873638 32.14575589 49 34 C49.99 34.66 50.98 35.32 52 36 C53.9959722 36.67863055 55.99568551 37.34641919 58 38 C59.72873474 39.72873474 59.16064469 42.06458569 59.18945312 44.421875 C59.20617065 45.57977539 59.22288818 46.73767578 59.2401123 47.93066406 C59.25368774 49.19104492 59.26726318 50.45142578 59.28125 51.75 C59.3093704 53.71067461 59.33749609 55.67134916 59.36594391 57.63201904 C59.42465048 61.78895205 59.47454557 65.94600026 59.52606201 70.10302734 C59.56877159 73.52218296 59.61335587 76.9412885 59.66296387 80.36035156 C59.6998176 82.92995185 59.73220954 85.49962044 59.7598877 88.06933594 C59.77660522 89.22723633 59.79332275 90.38513672 59.81054688 91.578125 C59.82307495 92.60325195 59.83560303 93.62837891 59.84851074 94.68457031 C59.74192874 96.96173999 59.74192874 96.96173999 61 98 C61.1875 101.4375 61.1875 101.4375 61 105 C59 107 59 107 55.5 107.25 C52 107 52 107 50 105 C49.8125 101.4375 49.8125 101.4375 50 98 C50.33 97.67 50.66 97.34 51 97 C51.12299166 95.31290653 51.17785258 93.62079097 51.20532227 91.92944336 C51.22526749 90.84839828 51.24521271 89.76735321 51.26576233 88.65354919 C51.28247482 87.4775264 51.29918732 86.3015036 51.31640625 85.08984375 C51.33718735 83.89267227 51.35796844 82.69550079 51.37937927 81.46205139 C51.44500279 77.62059513 51.50381903 73.77906799 51.5625 69.9375 C51.60567305 67.34048733 51.64928693 64.74348194 51.69335938 62.14648438 C51.80069716 55.76439883 51.90243931 49.38224207 52 43 C51.2206459 42.85522217 50.44129181 42.71044434 49.63832092 42.5612793 C46.93102168 41.98532548 44.98439603 41.12653161 42.55859375 39.8125 C41.73327148 39.36551758 40.90794922 38.91853516 40.05761719 38.45800781 C39.19297852 37.97686523 38.32833984 37.49572266 37.4375 37 C36.54579102 36.5059668 35.65408203 36.01193359 34.73535156 35.50292969 C27.67487892 31.52068995 21.25406587 27.17543742 15 22 C14.2678125 21.41863281 13.535625 20.83726562 12.78125 20.23828125 C7.56585696 15.93558199 2.33800845 10.91521725 -1 5 C-0.71484375 2.1953125 -0.71484375 2.1953125 0 0 Z " fill="#688C91" transform="translate(167,316)"/>
<path d="M0 0 C0.7109375 1.703125 0.7109375 1.703125 1 4 C-9.12541503 21.40860829 -30.42162599 32.60617435 -48 41 C-48.66 41 -49.32 41 -50 41 C-49.8820694 48.56236466 -49.75724576 56.12459329 -49.62768555 63.68676758 C-49.58443974 66.25803057 -49.54275755 68.82932036 -49.50268555 71.40063477 C-49.44473175 75.10180733 -49.38110993 78.80284628 -49.31640625 82.50390625 C-49.29969376 83.64896133 -49.28298126 84.79401642 -49.26576233 85.97377014 C-49.1576123 92.56408133 -49.1576123 92.56408133 -48.35522461 99.09350586 C-48 102 -48 102 -50 105 C-51.875 105.36328125 -51.875 105.36328125 -54 105.3125 C-54.70125 105.30863281 -55.4025 105.30476563 -56.125 105.30078125 C-58 105 -58 105 -60 103 C-60.33333333 97.66666667 -60.33333333 97.66666667 -59 95 C-58.34 95 -57.68 95 -57 95 C-57.00222061 94.27781281 -57.00444122 93.55562561 -57.00672913 92.81155396 C-57.02674692 86.0133223 -57.04198176 79.21509503 -57.05181217 72.41684151 C-57.05703593 68.92159902 -57.06412441 65.42638084 -57.07543945 61.93115234 C-57.08835974 57.91503666 -57.0932324 53.8989466 -57.09765625 49.8828125 C-57.10281754 48.62445587 -57.10797882 47.36609924 -57.11329651 46.0696106 C-57.11337204 44.90855804 -57.11344757 43.74750549 -57.11352539 42.55126953 C-57.115746 41.52534698 -57.11796661 40.49942444 -57.12025452 39.44241333 C-57 37 -57 37 -56 35 C-54.28515625 34.140625 -54.28515625 34.140625 -52.0625 33.25 C-44.18366657 29.87870836 -37.1441275 25.16084457 -30.078125 20.35546875 C-28 19 -28 19 -24.5625 17.1875 C-21.32336115 15.41119805 -18.86872049 13.09337168 -16.1875 10.5625 C-12.06073269 6.72055559 -8.06245774 4.17938819 -2.93359375 1.875 C-1.03538391 1.15294784 -1.03538391 1.15294784 0 0 Z " fill="#6C9094" transform="translate(334,318)"/>
<path d="M0 0 C0.66 0 1.32 0 2 0 C2.85248007 1.0306989 3.65699587 2.10127912 4.4375 3.1875 C9.73353352 9.6342766 18.28426345 12.52300596 26.3984375 13.34375 C36.83880805 13.75398067 44.32000908 12.1497452 53 6 C54.82315045 4.08145559 56.38956047 2.10940687 58 0 C61.53606654 1.17868885 61.86620392 2.02241769 63.8125 5.0625 C65.29603255 7.25050505 65.29603255 7.25050505 67 9 C70.25696104 9.67166707 70.25696104 9.67166707 73 9 C71.62507212 11.74985577 69.70002939 12.04581505 66.96142578 13.15673828 C64.46229841 14.23117019 62.12517501 15.56223831 59.76269531 16.90625 C46.69012916 24.29235479 33.16666451 28.52256889 18.234375 24.68359375 C10.43133171 22.29629904 3.64240194 18.80240117 -3.3359375 14.5859375 C-5.52413317 13.28328729 -7.70491957 12.098593 -10 11 C-9.4225 10.5875 -8.845 10.175 -8.25 9.75 C-4.59663925 6.9084972 -1.84127058 4.29629801 0 0 Z " fill="#F9BCA3" transform="translate(221,322)"/>
<path d="M0 0 C0.92941406 0.55429687 1.85882813 1.10859375 2.81640625 1.6796875 C4.06486499 2.41186631 5.31357652 3.14361421 6.5625 3.875 C7.17158203 4.23980469 7.78066406 4.60460937 8.40820312 4.98046875 C17.2266081 10.11287376 25.90614651 11.01855232 36 10 C41.30083079 8.44620518 46.01424193 6.22178486 50.7109375 3.33203125 C53 2 53 2 55 2 C55.61337906 6.15053165 55.83224512 9.86978976 55 14 C52.16541605 17.28672617 48.83874104 19.05351973 45 21 C44.29359375 21.43183594 43.5871875 21.86367188 42.859375 22.30859375 C35.38933741 26.42851906 26.32407751 26.17335042 18.1640625 24.375 C15.58263597 23.46295025 13.36673896 22.37537314 11 21 C10.07703125 20.47535156 9.1540625 19.95070313 8.203125 19.41015625 C3.96579071 16.57928179 1.41178149 14.65661403 0.15234375 9.58984375 C-0.09763588 6.35419191 -0.16788074 3.23911078 0 0 Z " fill="#A94E4F" transform="translate(223,287)"/>
<path d="M0 0 C1.06816445 0.86807601 2.12918085 1.74494783 3.1875 2.625 C3.77917969 3.11226563 4.37085938 3.59953125 4.98046875 4.1015625 C7 6 7 6 9.2578125 8.8515625 C12.25485996 12.51115104 15.81525521 15.0740948 19.6875 17.75 C20.4206543 18.26224121 21.15380859 18.77448242 21.90917969 19.30224609 C31.35426977 25.77699336 41.3550221 31.74200884 52 36 C52 40.29 52 44.58 52 49 C37.84016148 44.28005383 25.40312216 35.48381268 14 26 C13.31969727 25.43587402 12.63939453 24.87174805 11.93847656 24.29052734 C0.65910045 14.70171805 0.65910045 14.70171805 -0.8671875 8.4453125 C-0.87415558 5.48387672 -0.66464696 2.88013684 0 0 Z " fill="#ACC2C0" transform="translate(167,323)"/>
<path d="M0 0 C0.30518762 1.5561547 0.56775915 3.12070108 0.8125 4.6875 C0.96332031 5.55761719 1.11414063 6.42773438 1.26953125 7.32421875 C0.87343378 11.25649074 -1.07181367 12.43635108 -4 15 C-4.96242339 15.92806882 -5.92065695 16.86049907 -6.875 17.796875 C-19.20317152 29.53498357 -34.22064232 41.77330104 -51 46 C-51 42.04 -51 38.08 -51 34 C-49.76765625 33.3709375 -48.5353125 32.741875 -47.265625 32.09375 C-30.807463 23.61565623 -16.42245599 13.9959176 -2.71484375 1.46875 C-1 0 -1 0 0 0 Z " fill="#ABC1BE" transform="translate(335,325)"/>
<path d="M0 0 C1.9375 1.1875 1.9375 1.1875 3.9375 3.1875 C3.77685547 5.20996094 3.77685547 5.20996094 2.9375 7.1875 C0.30240137 8.44802554 -2.19865863 9.46524039 -4.9375 10.4375 C-14.85752681 14.24426353 -25.11482033 19.2327685 -30.0625 29.1875 C-31.5669904 32.80167055 -32.82200628 36.47590326 -34.0625 40.1875 C-34.8069513 42.25200927 -35.55675425 44.31459843 -36.3125 46.375 C-36.64765625 47.29667969 -36.9828125 48.21835937 -37.328125 49.16796875 C-37.57046875 49.83441406 -37.8128125 50.50085938 -38.0625 51.1875 C-40.53050047 50.03576645 -42.11033565 49.13966435 -44.0625 47.1875 C-44.73126504 35.59557261 -38.50931893 23.81033665 -31.34375 15.09765625 C-26.07693595 9.82039217 -7.72175817 -3.04190473 0 0 Z " fill="#F6F9F8" transform="translate(168.0625,335.8125)"/>
<path d="M0 0 C12.16395044 1.57909296 26.23314523 9.76711241 34 19 C38.13297034 24.53427789 40.66187728 30.09226056 42.359375 36.7734375 C42.93425353 39.03934205 42.93425353 39.03934205 44.08984375 41.12890625 C45.37752947 43.77612282 44.91562093 45.2531372 44 48 C42.4375 49.8125 42.4375 49.8125 41 51 C40.01 50.67 39.02 50.34 38 50 C36.961693 47.35351059 36.08183751 44.77298497 35.25 42.0625 C31.48179697 30.69267658 26.23101769 21.7514532 15.29248047 16.12109375 C8.63816647 12.83433365 1.82606776 9.9078873 -5 7 C-3.35 4.69 -1.7 2.38 0 0 Z " fill="#F6F9F9" transform="translate(334,335)"/>
<path d="M0 0 C3.38688479 0.8467212 6.01056327 1.81106259 9.125 3.3125 C9.99382812 3.72113281 10.86265625 4.12976563 11.7578125 4.55078125 C14.2848778 6.18412834 15.02199852 7.18824575 16 10 C16.63247477 16.32474774 15.69514285 20.77061656 12 26 C8.57882212 29.66438958 4.92188574 32.70476691 0 34 C-1.65 34 -3.3 34 -5 34 C-3.35 22.78 -1.7 11.56 0 0 Z " fill="#D37A67" transform="translate(311,212)"/>
<path d="M0 0 C0.03738281 0.72960937 0.07476562 1.45921875 0.11328125 2.2109375 C0.59681404 9.89057595 1.62327488 17.33659696 2.98364258 24.90576172 C3.59593435 28.34957201 4 31.4887591 4 35 C-2.90338037 35 -6.16314477 32.89333742 -11.078125 28.10546875 C-15.67849943 23.06562766 -16.33163964 18.97088356 -16.30078125 12.3671875 C-15.96991518 9.76322856 -15.45526191 8.18289286 -14 6 C-12.23046875 4.8046875 -12.23046875 4.8046875 -10.1875 3.875 C-9.47851562 3.54757813 -8.76953125 3.22015625 -8.0390625 2.8828125 C-1.38053097 0 -1.38053097 0 0 0 Z " fill="#D07A69" transform="translate(192,211)"/>
<path d="M0 0 C1.65 0 3.3 0 5 0 C5 19.14 5 38.28 5 58 C3.02 58 1.04 58 -1 58 C-1.02312883 50.58540058 -1.04091785 43.17080889 -1.05181217 35.75618076 C-1.05703982 32.31359652 -1.06413531 28.87103688 -1.07543945 25.4284668 C-1.08834235 21.47444957 -1.09322918 17.52044244 -1.09765625 13.56640625 C-1.10281754 12.32476212 -1.10797882 11.08311798 -1.11329651 9.80384827 C-1.11337204 8.66274094 -1.11344757 7.52163361 -1.11352539 6.34594727 C-1.115746 5.335569 -1.11796661 4.32519073 -1.12025452 3.28419495 C-1 1 -1 1 0 0 Z " fill="#234D53" transform="translate(278,354)"/>
<path d="M0 0 C0.66 0 1.32 0 2 0 C2 0.66 2 1.32 2 2 C2.85827393 2.41342651 2.85827393 2.41342651 3.73388672 2.83520508 C5.99460585 3.99722738 8.11148662 5.27600287 10.2578125 6.63671875 C11.44310547 7.37825195 11.44310547 7.37825195 12.65234375 8.13476562 C14.3116692 9.17675909 15.96789316 10.22370668 17.62109375 11.27539062 C18.40871094 11.76587891 19.19632812 12.25636719 20.0078125 12.76171875 C20.72598145 13.21506592 21.44415039 13.66841309 22.18408203 14.13549805 C22.78333496 14.42078369 23.38258789 14.70606934 24 15 C24.66 14.67 25.32 14.34 26 14 C26 17.63 26 21.26 26 25 C22.23195376 24.24639075 20.22820774 23.79967806 17.0390625 22.109375 C16.31976563 21.72910156 15.60046875 21.34882813 14.859375 20.95703125 C14.12203125 20.55871094 13.3846875 20.16039062 12.625 19.75 C11.53058594 19.17572266 11.53058594 19.17572266 10.4140625 18.58984375 C5.65748528 16.05017127 1.32598467 13.21880653 -3 10 C-2.49287967 6.28111761 -1.88391785 3.26545761 0 0 Z " fill="#5D8388" transform="translate(285,186)"/>
<path d="M0 0 C1.32 0 2.64 0 4 0 C5.28566729 2.57133459 5.12009778 4.397171 5.11352539 7.27587891 C5.11344986 8.3768692 5.11337433 9.4778595 5.11329651 10.61221313 C5.10813522 11.80494843 5.10297394 12.99768372 5.09765625 14.2265625 C5.0962413 15.44451508 5.09482635 16.66246765 5.09336853 17.91732788 C5.08775639 21.8199099 5.07520179 25.72243523 5.0625 29.625 C5.05748657 32.26562417 5.05292339 34.90624924 5.04882812 37.546875 C5.03778301 44.03126945 5.02103302 50.51563068 5 57 C3.35 57 1.7 57 0 57 C0 38.19 0 19.38 0 0 Z " fill="#1D494F" transform="translate(220,354)"/>
<path d="M0 0 C0.33 0 0.66 0 1 0 C1 7.59 1 15.18 1 23 C2.60875 23.04125 4.2175 23.0825 5.875 23.125 C24.20675108 24.68330706 40.73828812 33.91517586 55 45 C55.928125 45.69738281 56.85625 46.39476562 57.8125 47.11328125 C58.8953125 48.04720703 58.8953125 48.04720703 60 49 C60 49.66 60 50.32 60 51 C59.34 51 58.68 51 58 51 C58 50.34 58 49.68 58 49 C57.46117187 48.75636719 56.92234375 48.51273438 56.3671875 48.26171875 C53.4176446 46.68960265 50.83190615 44.77348812 48.125 42.8125 C30.56686754 30.44631531 10.54695303 23.43761289 -11.04492188 26.26806641 C-24.74344815 28.74627984 -37.31616094 35.90985901 -48.765625 43.5546875 C-50.7942534 44.86691216 -52.81781914 45.9689696 -55 47 C-55 46.34 -55 45.68 -55 45 C-51.87675051 42.38116912 -48.40680932 40.23048738 -45 38 C-44.14277344 37.41605469 -43.28554687 36.83210938 -42.40234375 36.23046875 C-29.92925837 28.2799985 -14.80975312 23.19746337 0 23 C0 15.41 0 7.82 0 0 Z " fill="#D6DDD6" transform="translate(251,98)"/>
<path d="M0 0 C8.94357155 10.89347814 11.87315233 28.2559356 11 42 C7.45039616 41.34266596 4.7490975 40.37875276 2 38 C1.66888345 35.03851837 1.62535321 32.62230193 1.8125 29.6875 C2.05984847 22.54603199 1.6645316 16.0710567 0.4375 9.015625 C-0.00485901 5.96650753 -0.0736852 3.0763573 0 0 Z " fill="#96B2B0" transform="translate(153,372)"/>
<path d="M0 0 C4.9121738 0.27289854 6.74034133 2.51292328 10 6 C12.62138794 8.38647741 15.30781764 10.69399134 18 13 C18.825 13.721875 19.65 14.44375 20.5 15.1875 C23.7961783 17.57722927 27.31852922 19.28258931 31 21 C31 25 31 25 30 28 C27.82778513 26.716961 25.6624676 25.42427887 23.5 24.125 C22.87996094 23.76019531 22.25992188 23.39539063 21.62109375 23.01953125 C20.04632542 22.0677482 18.51870947 21.03889741 17 20 C17 19.34 17 18.68 17 18 C16.34 17.814375 15.68 17.62875 15 17.4375 C10.66621767 15.36089597 7.49204419 12.25971061 4 9 C3.46375 8.51660156 2.9275 8.03320312 2.375 7.53515625 C1 6.25 1 6.25 -1 4 C-1 1 -1 1 0 0 Z " fill="#F2F5F4" transform="translate(189,316)"/>
<path d="M0 0 C0.67453101 7.68483539 1.1567564 15.28410183 1 23 C-2.45941545 23.16225064 -3.69499132 23.1986103 -6.6875 21.25 C-9.92462031 18.10036943 -10.91593431 16.40109486 -11.1875 11.875 C-11 9 -11 9 -10 7 C-11.32 6.67 -12.64 6.34 -14 6 C-2.26213592 0 -2.26213592 0 0 0 Z " fill="#A84F4C" transform="translate(192,211)"/>
<path d="M0 0 C1.05389548 3.16168645 0.9600696 4.46323631 0.4765625 7.68359375 C0.276073 9.06780518 0.276073 9.06780518 0.0715332 10.47998047 C-0.07582275 11.45596191 -0.22317871 12.43194336 -0.375 13.4375 C-1.50911269 21.28865574 -2.51534358 29.07837431 -3 37 C-2.34 37.33 -1.68 37.66 -1 38 C-3.8125 40.0625 -3.8125 40.0625 -7 42 C-7.99 41.67 -8.98 41.34 -10 41 C-10.78302427 26.52855153 -6.65954755 12.79737939 0 0 Z " fill="#92B0B0" transform="translate(349,371)"/>
<path d="M0 0 C3.91904847 0.8930575 7.33016838 2.37680524 11 4 C10.34 4.66 9.68 5.32 9 6 C9.33 6.66 9.66 7.32 10 8 C10.37163382 11.22082643 10.66699869 13.82341431 9.0234375 16.72265625 C6.73728023 19.57684646 4.49508604 21.83497132 1 23 C0.01 23 -0.98 23 -2 23 C-2.31918373 15.14453364 -1.35709504 7.73059495 0 0 Z " fill="#AB524D" transform="translate(311,212)"/>
<path d="M0 0 C9.77183004 16.0947789 4.37562158 46.96221592 0.51367188 64.16650391 C-0.40557334 67.8750275 -1.33783834 71.55345891 -3 75 C-4.485 75.495 -4.485 75.495 -6 76 C-5.81824219 75.41476562 -5.63648438 74.82953125 -5.44921875 74.2265625 C1.0404347 52.06189996 2.21312348 28.58019573 -1.7578125 5.80859375 C-2 3 -2 3 0 0 Z " fill="#F1F6F6" transform="translate(357,215)"/>
<path d="M0 0 C0.33 0 0.66 0 1 0 C0.98952637 0.85529297 0.97905273 1.71058594 0.96826172 2.59179688 C0.70740772 27.11867653 0.55678661 50.0157579 12.70703125 72.13671875 C14 75 14 75 13 78 C0.22461207 61.28326899 -2.56056001 41.29221059 -2.33618164 20.8737793 C-2.31197463 18.51122479 -2.31573161 16.14976127 -2.32226562 13.78710938 C-2.31670554 12.27603493 -2.30960633 10.76496516 -2.30078125 9.25390625 C-2.30169266 8.55197647 -2.30260406 7.85004669 -2.30354309 7.12684631 C-2.23127371 2.23127371 -2.23127371 2.23127371 0 0 Z " fill="#F3F8F7" transform="translate(144,227)"/>
<path d="M0 0 C0.66 0.33 1.32 0.66 2 1 C2.01030746 1.72440781 2.02061493 2.44881561 2.03123474 3.19517517 C2.12904768 10.00851902 2.23153859 16.821778 2.33933926 23.63497066 C2.39459955 27.13804355 2.44802434 30.64112473 2.49731445 34.14428711 C2.55400668 38.16790144 2.61857401 42.19135531 2.68359375 46.21484375 C2.70030624 47.47836166 2.71701874 48.74187958 2.73423767 50.04368591 C2.75418289 51.204814 2.77412811 52.36594208 2.79467773 53.56225586 C2.81022202 54.59039902 2.8257663 55.61854218 2.84178162 56.67784119 C2.74171871 58.96085353 2.74171871 58.96085353 4 60 C4.1875 63.4375 4.1875 63.4375 4 67 C2 69 2 69 -1.5 69.25 C-5 69 -5 69 -7 67 C-7.25 63.5 -7.25 63.5 -7 60 C-6.34 59.34 -5.68 58.68 -5 58 C-3.02 58 -1.04 58 1 58 C0.505 29.29 0.505 29.29 0 0 Z " fill="#8AA6A2" transform="translate(224,354)"/>
<path d="M0 0 C0.33 0 0.66 0 1 0 C1.02505615 1.23564697 1.0501123 2.47129395 1.07592773 3.74438477 C1.17043852 8.34962486 1.27055089 12.95472939 1.37231445 17.55981445 C1.41549871 19.5490399 1.4571847 21.53829848 1.49731445 23.52758789 C1.55541898 26.39479537 1.61899555 29.2618386 1.68359375 32.12890625 C1.70030624 33.01147598 1.71701874 33.89404572 1.73423767 34.80335999 C1.82461285 38.61109601 2.02605444 42.15878312 2.64477539 45.92944336 C3 49 3 49 1 52 C-0.875 52.36328125 -0.875 52.36328125 -3 52.3125 C-3.70125 52.30863281 -4.4025 52.30476563 -5.125 52.30078125 C-7 52 -7 52 -9 50 C-9.33015665 46.89652746 -9.50531294 44.84218824 -7.875 42.125 C-6 41 -6 41 0 41 C0 27.47 0 13.94 0 0 Z " fill="#8FAAAD" transform="translate(283,371)"/>
<path d="M0 0 C0.66 0 1.32 0 2 0 C2 20.79 2 41.58 2 63 C2.66 63 3.32 63 4 63 C4 63.66 4 64.32 4 65 C2.68 65 1.36 65 0 65 C0 43.55 0 22.1 0 0 Z " fill="#C8D3CC" transform="translate(250,373)"/>
<path d="M0 0 C0.71484375 1.69921875 0.71484375 1.69921875 1 4 C-2.9621165 10.73898448 -8.95455458 16.14434969 -15 21 C-16.32 19.68 -17.64 18.36 -19 17 C-7.84738041 4.14578588 -7.84738041 4.14578588 0 0 Z " fill="#62898D" transform="translate(334,318)"/>
<path d="M0 0 C2.91417432 3.30880209 3.68564475 6.15473502 4.5 10.453125 C4.87125 12.34224609 4.87125 12.34224609 5.25 14.26953125 C5.50089159 15.59618586 5.75088539 16.92301056 6 18.25 C7.74253499 28.1638059 7.74253499 28.1638059 10.75 37.734375 C12 41 12 41 11 44 C3.65343187 29.91907776 0.50177278 15.83093116 0 0 Z " fill="#F7F9F6" transform="translate(154,246)"/>
<path d="M0 0 C0.66 0.33 1.32 0.66 2 1 C1.152055 8.39104302 -0.2195897 15.34812291 -2.4375 22.4375 C-2.64270264 23.09878906 -2.84790527 23.76007813 -3.05932617 24.44140625 C-4.37175415 28.49828177 -6.00413551 32.23520605 -8 36 C-9.35120733 31.94637802 -8.0138186 29.15760924 -6.75 25.25 C-4.54028678 18.14581798 -2.90027462 11.09919443 -1.578125 3.78125 C-1 1 -1 1 0 0 Z " fill="#F6F9F6" transform="translate(346,253)"/>
<path d="M0 0 C0.99 0.33 1.98 0.66 3 1 C-0.71264361 4.12533275 -4.59826374 6.67919786 -8.8125 9.0625 C-9.42689941 9.41248047 -10.04129883 9.76246094 -10.67431641 10.12304688 C-15.01966961 12.55507064 -19.26541356 14.48493234 -24 16 C-24 15.01 -24 14.02 -24 13 C-23.01 13 -22.02 13 -21 13 C-21 11.68 -21 10.36 -21 9 C-19.96939453 8.96132812 -19.96939453 8.96132812 -18.91796875 8.921875 C-18.01691406 8.86515625 -17.11585938 8.8084375 -16.1875 8.75 C-15.29417969 8.70359375 -14.40085938 8.6571875 -13.48046875 8.609375 C-10.32366762 7.8338459 -9.7879926 6.62471337 -8 4 C-5.69855891 2.92863949 -3.3659787 1.92010283 -1 1 C-0.67 0.67 -0.34 0.34 0 0 Z " fill="#688380" transform="translate(216,195)"/>
<path d="M0 0 C1 2 1 2 -0.00390625 5.0546875 C-0.51347124 6.33214564 -1.03372447 7.60537319 -1.5625 8.875 C-1.83626465 9.54031738 -2.1100293 10.20563477 -2.39208984 10.89111328 C-8.27831948 24.99585222 -8.27831948 24.99585222 -11 29 C-13.1796875 29.8203125 -13.1796875 29.8203125 -15 30 C-14.48050781 28.98421875 -13.96101563 27.9684375 -13.42578125 26.921875 C-9.64309835 19.47091583 -6.04525826 12.05321525 -3.0078125 4.2578125 C-2 2 -2 2 0 0 Z " fill="#85ABAC" transform="translate(419,316)"/>
<path d="M0 0 C0.66 0 1.32 0 2 0 C2.58051881 8.94428987 0.81374025 17.29836524 -1 26 C-1.66 26 -2.32 26 -3 26 C-2.31145453 17.28446396 -1.20329037 8.65668121 0 0 Z " fill="#8BAFB2" transform="translate(427,269)"/>
<path d="M0 0 C3.37308761 1.12436254 4.15123097 2.07342733 6.375 4.75 C11.32869812 11.039423 11.32869812 11.039423 18 15 C19.84499398 16.87617698 21.3683599 18.92737609 23 21 C13.65778825 17.69786832 5.83022207 9.84962859 0 2 C0 1.34 0 0.68 0 0 Z " fill="#DCC9BB" transform="translate(209,271)"/>
<path d="M0 0 C-2.35953094 2.35953094 -3.77895617 2.49141413 -7 3 C-8.06723961 6.46222615 -8.10173486 9.64039266 -8.0625 13.25 C-8.04896484 14.86648437 -8.04896484 14.86648437 -8.03515625 16.515625 C-8.02355469 17.33546875 -8.01195312 18.1553125 -8 19 C-8.66 19 -9.32 19 -10 19 C-12.48690959 15.26963562 -12.52910903 12.31974087 -12 8 C-11.23529624 5.4197415 -10.27566074 3.40412985 -9 1 C-6.04335481 -0.4783226 -3.25770263 -0.06032783 0 0 Z " fill="#2D4447" transform="translate(185,214)"/>
<path d="M0 0 C1.65 0 3.3 0 5 0 C7.69352006 2.97216006 8.17370973 5.43053804 8.1875 9.3125 C8.125625 10.529375 8.06375 11.74625 8 13 C7.67 13 7.34 13 7 13 C6.67 11.02 6.34 9.04 6 7 C5.67 8.32 5.34 9.64 5 11 C4.34 11 3.68 11 3 11 C2.01 7.37 1.02 3.74 0 0 Z " fill="#B16F68" transform="translate(319,217)"/>
<path d="M0 0 C0 2.64 0 5.28 0 8 C-0.88751953 7.89171875 -0.88751953 7.89171875 -1.79296875 7.78125 C-5.88261722 7.30089977 -9.8738531 6.86689849 -14 7 C-11.64875746 4.64875746 -9.46926336 3.72684233 -6.4375 2.375 C-5.44621094 1.92898437 -4.45492187 1.48296875 -3.43359375 1.0234375 C-1 0 -1 0 0 0 Z " fill="#A7615C" transform="translate(192,211)"/>
<path d="M0 0 C1.32 0 2.64 0 4 0 C4 3.3 4 6.6 4 10 C2.35 10.33 0.7 10.66 -1 11 C-1.02688151 9.35425434 -1.04634123 7.70838587 -1.0625 6.0625 C-1.07410156 5.14597656 -1.08570313 4.22945312 -1.09765625 3.28515625 C-1 1 -1 1 0 0 Z " fill="#D47468" transform="translate(178,218)"/>
<path d="M0 0 C0.66 0.33 1.32 0.66 2 1 C-0.5534847 5.20573951 -3.71324188 6.81765041 -8 9 C-8.66 9 -9.32 9 -10 9 C-10.2784375 9.9590625 -10.2784375 9.9590625 -10.5625 10.9375 C-12 13 -12 13 -15.625 13.75 C-16.73875 13.8325 -17.8525 13.915 -19 14 C-14.7299443 10.46749938 -10.23605327 7.58217523 -5.5234375 4.68359375 C-3.38329215 3.25572588 -1.71756201 1.89623456 0 0 Z " fill="#DBBEA9" transform="translate(223,192)"/>
<path d="M0 0 C0.33 0 0.66 0 1 0 C1.144375 1.134375 1.28875 2.26875 1.4375 3.4375 C1.61171478 6.80777201 1.61171478 6.80777201 3 8 C4.66617115 8.04063832 6.33388095 8.042721 8 8 C8.33 5.36 8.66 2.72 9 0 C9.66 0.66 10.32 1.32 11 2 C10.42307692 8.57692308 10.42307692 8.57692308 9 10 C3.26388889 10.27314815 3.26388889 10.27314815 1 10 C-1 8 -1 8 -1.1875 5 C-1 2 -1 2 0 0 Z " fill="#A9BCBA" transform="translate(275,413)"/>
<path d="M0 0 C0.33 1.32 0.66 2.64 1 4 C-6.5027027 10.87567568 -6.5027027 10.87567568 -11 12 C-11.99 11.67 -12.98 11.34 -14 11 C-12.35 10.67 -10.7 10.34 -9 10 C-8.67 8.68 -8.34 7.36 -8 6 C-7.01 6 -6.02 6 -5 6 C-4.67 5.34 -4.34 4.68 -4 4 C-3.34 4 -2.68 4 -2 4 C-1.34 2.68 -0.68 1.36 0 0 Z " fill="#C17A64" transform="translate(322,234)"/>
<path d="M0 0 C0.97961897 2.93885692 1.03775226 4.05758525 0.66015625 7.01171875 C0.56669922 7.76904297 0.47324219 8.52636719 0.37695312 9.30664062 C0.27318359 10.09232422 0.16941406 10.87800781 0.0625 11.6875 C-0.03740234 12.48478516 -0.13730469 13.28207031 -0.24023438 14.10351562 C-0.48748847 16.06977435 -0.74295637 18.03499706 -1 20 C-1.33 20 -1.66 20 -2 20 C-2.33 17.36 -2.66 14.72 -3 12 C-3.99 12.495 -3.99 12.495 -5 13 C-4.54554036 11.58208592 -4.08625056 10.16571954 -3.625 8.75 C-3.24214844 7.56664062 -3.24214844 7.56664062 -2.8515625 6.359375 C-2.04826333 4.13372042 -1.10288338 2.09068328 0 0 Z " fill="#A6BBB6" transform="translate(349,371)"/>
<path d="M0 0 C0 0.66 0 1.32 0 2 C-2.57637588 3.36907416 -5.15968104 4.72028455 -7.75 6.0625 C-8.84441406 6.64741211 -8.84441406 6.64741211 -9.9609375 7.24414062 C-10.66992188 7.60830078 -11.37890625 7.97246094 -12.109375 8.34765625 C-12.75874023 8.68804932 -13.40810547 9.02844238 -14.07714844 9.37915039 C-16.41991018 10.13558044 -17.70456573 9.78821819 -20 9 C-17.34898031 7.23265354 -15.66136389 6.4981552 -12.6875 5.625 C-8.65162597 4.34324847 -3.8964544 0 0 0 Z " fill="#EDCBB7" transform="translate(278,287)"/>
<path d="M0 0 C0.66 0.66 1.32 1.32 2 2 C0.9171875 2.804375 0.9171875 2.804375 -0.1875 3.625 C-3.247842 6.2092888 -5.51220011 8.87248014 -8 12 C-8.99 11.67 -9.98 11.34 -11 11 C-7.81316569 6.66590534 -4.13621084 3.3810038 0 0 Z " fill="#E5E9E1" transform="translate(195,144)"/>
<path d="M0 0 C0.66 0.33 1.32 0.66 2 1 C1.50371094 1.4846875 1.00742188 1.969375 0.49609375 2.46875 C-4.23054696 7.132608 -8.6966545 11.94356903 -13 17 C-13 13.34196352 -12.27649012 12.8229015 -9.875 10.1875 C-9.24207031 9.49011719 -8.60914063 8.79273437 -7.95703125 8.07421875 C-5.35985436 5.32152229 -2.7089358 2.6428642 0 0 Z " fill="#ECF4F3" transform="translate(189,117)"/>
<path d="M0 0 C3.91593446 0.78318689 7.36406635 2.39179858 11 4 C8.98249041 4.5043774 6.97210848 5.00591638 4.9375 5.4375 C2.70268087 5.98102599 2.70268087 5.98102599 0 8 C0 5.36 0 2.72 0 0 Z " fill="#A55B5A" transform="translate(311,212)"/>
<path d="M0 0 C-0.33 1.98 -0.66 3.96 -1 6 C-1.66 5.34 -2.32 4.68 -3 4 C-5.64 5.65 -8.28 7.3 -11 9 C-11.33 8.34 -11.66 7.68 -12 7 C-10.35 6.34 -8.7 5.68 -7 5 C-7 4.34 -7 3.68 -7 3 C-4.4385343 0.70351351 -3.52032428 0 0 0 Z " fill="#83A6A6" transform="translate(337,315)"/>
<path d="M0 0 C2.97 1.98 2.97 1.98 6 4 C4.68 4.33 3.36 4.66 2 5 C2.04125 6.11375 2.0825 7.2275 2.125 8.375 C2 12 2 12 0 14 C0 9.38 0 4.76 0 0 Z " fill="#C47770" transform="translate(224,300)"/>
<path d="M0 0 C0.66 0.99 1.32 1.98 2 3 C0.95207613 7.28696129 -0.85293235 11.15317047 -3 15 C-3.99 15.495 -3.99 15.495 -5 16 C-4.80664062 15.43152344 -4.61328125 14.86304688 -4.4140625 14.27734375 C-2.81863577 9.54635062 -1.33099414 4.81205575 0 0 Z " fill="#BDCBC6" transform="translate(333,272)"/>
<path d="M0 0 C0.75 1.625 0.75 1.625 1 4 C-1.02291546 7.61234904 -2.53871879 9.6924792 -6 12 C-4.68139111 7.38486888 -2.78644563 3.90102388 0 0 Z " fill="#EAF3EF" transform="translate(350,293)"/>
<path d="M0 0 C2.0839403 0.11443603 4.16716493 0.24195547 6.25 0.375 C7.41015625 0.44460938 8.5703125 0.51421875 9.765625 0.5859375 C12.70694334 0.96248308 14.49949011 1.4774123 17 3 C15.10448978 3.05441656 13.2085208 3.09298035 11.3125 3.125 C10.25675781 3.14820313 9.20101562 3.17140625 8.11328125 3.1953125 C4.97748141 2.99858729 2.82354627 2.33057654 0 1 C0 0.67 0 0.34 0 0 Z " fill="#F4CFBC" transform="translate(239,295)"/>
<path d="M0 0 C0.721875 0.804375 1.44375 1.60875 2.1875 2.4375 C5.07564312 5.06891929 6.24240969 5.59377402 10 6 C10.66 6.33 11.32 6.66 12 7 C9.42332866 8.21676146 7.62217997 9.05184833 4.75 8.8125 C4.1725 8.544375 3.595 8.27625 3 8 C2.67 7.01 2.34 6.02 2 5 C1.34 4.67 0.68 4.34 0 4 C0 2.68 0 1.36 0 0 Z " fill="#D5B7A7" transform="translate(282,325)"/>
<path d="M0 0 C0.33 0 0.66 0 1 0 C1 3.63 1 7.26 1 11 C0.01 11 -0.98 11 -2 11 C-2.05399736 9.54207116 -2.09279177 8.08357288 -2.125 6.625 C-2.15980469 5.40683594 -2.15980469 5.40683594 -2.1953125 4.1640625 C-2 2 -2 2 0 0 Z " fill="#F0F6F4" transform="translate(144,227)"/>
<path d="M0 0 C0.99 0.33 1.98 0.66 3 1 C0.03 4.96 0.03 4.96 -3 9 C-3.66 7.68 -4.32 6.36 -5 5 C-4.01 3.68 -3.02 2.36 -2 1 C-1.67 1.33 -1.34 1.66 -1 2 C-0.67 1.34 -0.34 0.68 0 0 Z " fill="#7B9390" transform="translate(239,172)"/>
<path d="M0 0 C3 3.75 3 3.75 3 6 C3.66 6 4.32 6 5 6 C6.6875 8.3125 6.6875 8.3125 8 11 C7.67 11.99 7.34 12.98 7 14 C6.0106909 12.61133677 5.03396922 11.21370149 4.0625 9.8125 C3.51722656 9.03519531 2.97195312 8.25789063 2.41015625 7.45703125 C0.9543711 4.92049701 0.40386565 2.8781818 0 0 Z " fill="#DBC4B7" transform="translate(201,257)"/>
<path d="M0 0 C2.97 0.495 2.97 0.495 6 1 C5.360625 1.2475 4.72125 1.495 4.0625 1.75 C1.81258459 2.81562433 1.81258459 2.81562433 1.25 5.125 C1.1675 5.74375 1.085 6.3625 1 7 C-0.65 6.67 -2.3 6.34 -4 6 C-3.34 5.67 -2.68 5.34 -2 5 C-1.27840576 3.35636866 -0.60648579 1.68949614 0 0 Z " fill="#74979C" transform="translate(218,352)"/>
<path d="M0 0 C-1.875 3.875 -1.875 3.875 -3 5 C-5.67058851 5.14115161 -8.32432238 5.04247107 -11 5 C-3.5 0 -3.5 0 0 0 Z " fill="#82A1A2" transform="translate(289,349)"/>
<path d="M0 0 C1.65 0.33 3.3 0.66 5 1 C4.67 1.66 4.34 2.32 4 3 C3.360625 3.12375 2.72125 3.2475 2.0625 3.375 C-0.19851273 3.80939427 -0.19851273 3.80939427 -1.25 6.0625 C-1.4975 6.701875 -1.745 7.34125 -2 8 C-2.99 7.67 -3.98 7.34 -5 7 C-3.35 4.69 -1.7 2.38 0 0 Z " fill="#E8F1EF" transform="translate(334,335)"/>
<path d="M0 0 C2.08995502 3.44227886 2.08995502 3.44227886 1.6875 5.9375 C1.460625 6.618125 1.23375 7.29875 1 8 C0.65939189 9.66519519 0.32441604 11.33157466 0 13 C-0.33 13 -0.66 13 -1 13 C-1.22245393 11.39773045 -1.42746669 9.79303233 -1.625 8.1875 C-1.74101562 7.29417969 -1.85703125 6.40085938 -1.9765625 5.48046875 C-2 3 -2 3 0 0 Z " fill="#F1F5F2" transform="translate(357,215)"/>
<path d="M0 0 C0.33 0.99 0.66 1.98 1 3 C-1.31 4.98 -3.62 6.96 -6 9 C-6.66 8.67 -7.32 8.34 -8 8 C-5.36 5.36 -2.72 2.72 0 0 Z " fill="#E3BEAA" transform="translate(235,181)"/>
<path d="M0 0 C0.66 0 1.32 0 2 0 C2 0.66 2 1.32 2 2 C2.66 2 3.32 2 4 2 C4 1.34 4 0.68 4 0 C4.66 0 5.32 0 6 0 C5.67 2.31 5.34 4.62 5 7 C2.47411298 4.63707344 1.11179163 3.33537489 0 0 Z " fill="#7C9496" transform="translate(257,167)"/>
<path d="M0 0 C3.81818182 5.09090909 3.81818182 5.09090909 4 8 C3.01 9.32 2.02 10.64 1 12 C0.67 8.04 0.34 4.08 0 0 Z " fill="#A5B6B5" transform="translate(153,372)"/>
<path d="M0 0 C5.66710699 1.31793186 7.66437233 3.48709197 11 8 C6.40378078 6.5129879 3.53027653 4.20187872 0 1 C0 0.67 0 0.34 0 0 Z " fill="#EBCFBF" transform="translate(221,284)"/>
<path d="M0 0 C0.33 0 0.66 0 1 0 C1.268125 0.9075 1.53625 1.815 1.8125 2.75 C2.89576294 5.71471963 3.98359457 7.6169754 6 10 C3.08482708 8.92598892 1.22189824 8.22189824 -1 6 C-0.625 2.875 -0.625 2.875 0 0 Z " fill="#E4ECEA" transform="translate(123,378)"/>
<path d="M0 0 C3.48331435 3.01887244 4.79157144 5.56909529 6 10 C1.77202073 6.91709845 1.77202073 6.91709845 0 5 C-0.375 2.1875 -0.375 2.1875 0 0 Z " fill="#CFDFDD" transform="translate(158,302)"/>
<path d="M0 0 C0.86626039 2.42552909 1.17413108 3.57136965 0.1875 6 C-0.204375 6.66 -0.59625 7.32 -1 8 C-1.37125 8.7425 -1.7425 9.485 -2.125 10.25 C-2.41375 10.8275 -2.7025 11.405 -3 12 C-3.66 12 -4.32 12 -5 12 C-3.41037341 7.96479403 -1.71767682 3.98188718 0 0 Z " fill="#384F4C" transform="translate(302,256)"/>
<path d="M0 0 C0.33 0.66 0.66 1.32 1 2 C-0.98 4.64 -2.96 7.28 -5 10 C-5.66 9.67 -6.32 9.34 -7 9 C-4.69 6.03 -2.38 3.06 0 0 Z " fill="#395958" transform="translate(193,168)"/>
<path d="M0 0 C1.33897583 0.95043374 2.67105427 1.91059147 4 2.875 C5.11375 3.67550781 5.11375 3.67550781 6.25 4.4921875 C6.8275 4.98976562 7.405 5.48734375 8 6 C8 6.66 8 7.32 8 8 C7.34 8 6.68 8 6 8 C6 7.34 6 6.68 6 6 C5.401875 5.731875 4.80375 5.46375 4.1875 5.1875 C2.02775192 4.01506533 0.64209744 2.80630718 -1 1 C-0.67 0.67 -0.34 0.34 0 0 Z " fill="#DFE2DE" transform="translate(303,141)"/>
<path d="M0 0 C2.125 0.9375 2.125 0.9375 4 2 C3.67 2.99 3.34 3.98 3 5 C1.0625 4.6875 1.0625 4.6875 -1 4 C-1.33 3.01 -1.66 2.02 -2 1 C-1.34 0.67 -0.68 0.34 0 0 Z " fill="#A0C4C2" transform="translate(328,93)"/>
<path d="M0 0 C1.67542976 0.28604898 3.34385343 0.61781233 5 1 C5 1.66 5 2.32 5 3 C5.66 3 6.32 3 7 3 C7 3.66 7 4.32 7 5 C1.25 3.25 1.25 3.25 -1 1 C-0.67 0.67 -0.34 0.34 0 0 Z " fill="#E7C2B0" transform="translate(232,291)"/>
<path d="M0 0 C0.99 0 1.98 0 3 0 C3 0.66 3 1.32 3 2 C3.66 2 4.32 2 5 2 C4.34 3.98 3.68 5.96 3 8 C2.67 8 2.34 8 2 8 C1.34 5.36 0.68 2.72 0 0 Z " fill="#C76C60" transform="translate(319,217)"/>
<path d="M0 0 C0.556875 0.226875 1.11375 0.45375 1.6875 0.6875 C-2.74326923 3.76442308 -2.74326923 3.76442308 -5.625 3.375 C-6.4603125 3.0346875 -6.4603125 3.0346875 -7.3125 2.6875 C-2.88173077 -0.38942308 -2.88173077 -0.38942308 0 0 Z " fill="#E8C1AB" transform="translate(211.3125,202.3125)"/>
<path d="M0 0 C1.98 1.65 3.96 3.3 6 5 C3.92446352 5.5534764 2.15634036 6 0 6 C0 4.02 0 2.04 0 0 Z " fill="#E4BFAB" transform="translate(267,182)"/>
<path d="M0 0 C0.66 0.66 1.32 1.32 2 2 C-0.97 4.475 -0.97 4.475 -4 7 C-4.66 6.67 -5.32 6.34 -6 6 C-4.02 4.02 -2.04 2.04 0 0 Z " fill="#DCE3DC" transform="translate(195,144)"/>
</svg>
